<svg xmlns="http://www.w3.org/2000/svg" viewBox="0 0 800 300" role="img" aria-label="Dark city map pattern">
  <defs>
    <linearGradient id="bg" x1="0" y1="0" x2="1" y2="1">
      <stop offset="0%" stop-color="#202632" />
      <stop offset="55%" stop-color="#3a404c" />
      <stop offset="100%" stop-color="#2b313d" />
    </linearGradient>
    <filter id="roadGlow" x="-20%" y="-20%" width="140%" height="140%">
      <feGaussianBlur in="SourceGraphic" stdDeviation="1.2" result="blur" />
      <feMerge>
        <feMergeNode in="blur" />
        <feMergeNode in="SourceGraphic" />
      </feMerge>
    </filter>
  </defs>

  <rect width="800" height="300" fill="url(#bg)" />
  <rect width="800" height="300" fill="#1f2430" opacity="0.2" />

  <g stroke="#eef3fc" stroke-linecap="round" stroke-linejoin="round" fill="none" filter="url(#roadGlow)">
    <path d="M40 0 L110 38 L184 70 L250 100 L322 140 L400 176 L485 220 L565 252 L642 286" stroke-width="3.2" opacity="0.75" />
    <path d="M150 0 L160 40 L168 86 L175 130 L188 172 L204 214 L220 256 L236 300" stroke-width="9" opacity="0.68" />
    <path d="M318 0 L314 35 L317 70 L318 108 L322 150 L329 190 L334 232 L342 270 L352 300" stroke-width="5.5" opacity="0.76" />
    <path d="M690 0 L674 34 L660 66 L654 98 L662 132 L672 165 L676 206 L668 245 L648 300" stroke-width="8" opacity="0.68" />
    <path d="M0 164 L84 154 L168 151 L252 154 L335 164 L420 180 L506 200 L593 216 L684 226 L800 234" stroke-width="4.1" opacity="0.74" />
    <path d="M0 76 L66 88 L136 108 L206 128 L288 138 L362 137 L442 132 L520 128 L606 127 L700 139 L800 158" stroke-width="2.7" opacity="0.58" />
    <path d="M20 298 L85 266 L152 238 L218 214 L288 196 L358 186 L430 180 L510 178 L592 180 L670 188 L744 202 L800 222" stroke-width="2.8" opacity="0.52" />
  </g>

  <g stroke="#d2dae8" stroke-linecap="round" fill="none" opacity="0.42">
    <path d="M58 26 L90 64 L106 98 L118 132 L130 166 L144 206 L158 248" stroke-width="1.8" />
    <path d="M90 58 L142 48 L196 46 L250 54 L302 72 L356 90" stroke-width="1.3" />
    <path d="M90 92 L142 82 L196 80 L246 88 L294 106 L340 128" stroke-width="1.1" />
    <path d="M96 126 L148 118 L202 116 L252 124 L304 142 L354 164" stroke-width="1.1" />
    <path d="M106 160 L160 152 L214 152 L266 160 L320 178 L370 200" stroke-width="1.2" />
    <path d="M130 194 L182 188 L236 188 L288 196 L340 214 L388 236" stroke-width="1.1" />

    <path d="M220 36 L252 56 L280 86 L304 118 L326 152 L344 186 L360 220" stroke-width="1.2" />
    <path d="M244 26 L276 46 L304 76 L328 108 L352 146 L370 182 L388 220" stroke-width="1.1" />
    <path d="M274 16 L304 38 L332 68 L360 104 L384 140 L404 178 L422 218" stroke-width="1.1" />

    <path d="M420 26 L454 50 L484 84 L510 118 L534 154 L550 188 L564 224" stroke-width="1.2" />
    <path d="M450 18 L486 44 L518 78 L546 114 L570 152 L590 190 L604 226" stroke-width="1.1" />
    <path d="M484 10 L522 38 L556 72 L586 108 L612 148 L632 188 L648 226" stroke-width="1.1" />

    <path d="M414 74 L462 68 L510 66 L560 72 L612 88 L664 112" stroke-width="1.2" />
    <path d="M410 108 L458 102 L508 100 L558 106 L610 124 L660 148" stroke-width="1.2" />
    <path d="M406 142 L456 138 L506 136 L558 142 L610 160 L660 184" stroke-width="1.2" />
    <path d="M406 178 L458 176 L510 176 L562 184 L614 202 L666 226" stroke-width="1.2" />
    <path d="M410 214 L462 214 L516 218 L568 228 L620 248 L674 276" stroke-width="1.2" />
  </g>

  <g stroke="#ffffff" stroke-linecap="round" fill="none" opacity="0.62">
    <path d="M544 0 L526 34 L514 70 L510 110 L516 150 L528 188 L540 226 L552 264 L566 300" stroke-width="4.2" />
    <path d="M98 0 L116 42 L128 84 L134 126 L140 170 L148 212 L158 254 L170 300" stroke-width="3.6" />
    <path d="M740 0 L724 28 L710 58 L704 90 L706 124 L712 160 L720 196 L726 236 L734 278 L742 300" stroke-width="3.6" />
  </g>
</svg>
